<svg xmlns:dc="http://purl.org/dc/elements/1.1/" xmlns:cc="http://web.resource.org/cc/" xmlns:rdf="http://www.w3.org/1999/02/22-rdf-syntax-ns#" xmlns:svg="http://www.w3.org/2000/svg" xmlns="http://www.w3.org/2000/svg" version="1.0"><g><line x1="0" y1="15" x2="157.66" y2="15" style="stroke: rgb(64, 0, 0); stroke-width: 22;"></line></g><g><line x1="0" y1="15" x2="157.66" y2="15" style="stroke: rgb(64, 0, 0); stroke-width: 22;"></line></g><g><line x1="157.66" y1="15" x2="315.33" y2="15" style="stroke: rgb(85, 0, 0); stroke-width: 22;"></line></g><g><line x1="315.33" y1="15" x2="473" y2="15" style="stroke: rgb(119, 0, 0); stroke-width: 22;"></line></g><g><line x1="473" y1="15" x2="630.66" y2="15" style="stroke: rgb(153, 0, 0); stroke-width: 22;"></line></g><g><line x1="630.66" y1="15" x2="788.33" y2="15" style="stroke: rgb(187, 0, 0); stroke-width: 22;"></line></g><g><line x1="788.33" y1="15" x2="946" y2="15" style="stroke: rgb(221, 68, 34); stroke-width: 22;"></line></g><g><line x1="946" y1="15" x2="1103.66" y2="15" style="stroke: rgb(68, 221, 34); stroke-width: 22;"></line></g><g><line x1="1103.65" y1="15" x2="1261.33" y2="15" style="stroke: rgb(0, 187, 0); stroke-width: 22;"></line></g><g><line x1="1261.33" y1="15" x2="1419" y2="15" style="stroke: rgb(0, 153, 0); stroke-width: 22;"></line></g><g><line x1="1419" y1="15" x2="1576.65" y2="15" style="stroke: rgb(0, 119, 0); stroke-width: 22;"></line></g><g><line x1="1576.65" y1="15" x2="1734.33" y2="15" style="stroke: rgb(0, 85, 0); stroke-width: 22;"></line></g><g><line x1="1734.33" y1="15" x2="1892" y2="15" style="stroke: rgb(0, 64, 0); stroke-width: 22;"></line></g><g><line x1="0" y1="50" x2="1892" y2="50" style="stroke-dasharray: 3, 3; stroke: black; stroke-width: 2;"></line></g><g><line x1="0" y1="2" x2="1892" y2="2" style="stroke-dasharray: 3, 3; stroke: black; stroke-width: 2;"></line></g><g><text x="0" y="45" style="font-size: 12px;">0</text></g><g><text x="157.666" y="45" style="font-size: 12px; text-anchor: middle;">97</text></g><g><text x="315.33" y="45" style="font-size: 12px; text-anchor: middle;">194</text></g><g><text x="473" y="45" style="font-size: 12px; text-anchor: middle;">291</text></g><g><text x="630.66" y="45" style="font-size: 12px; text-anchor: middle;">388</text></g><g><text x="788.33" y="45" style="font-size: 12px; text-anchor: middle;">485</text></g><g><text x="946" y="45" style="font-size: 12px; text-anchor: middle;">582</text></g><g><text x="1103.65" y="45" style="font-size: 12px; text-anchor: middle;">679</text></g><g><text x="1261.33" y="45" style="font-size: 12px; text-anchor: middle;">776</text></g><g><text x="1419" y="45" style="font-size: 12px; text-anchor: middle;">873</text></g><g><text x="1576.65" y="45" style="font-size: 12px; text-anchor: middle;">970</text></g><g><text x="1734.33" y="45" style="font-size: 12px; text-anchor: middle;">1067</text></g><g><text x="1892" y="45" style="font-size: 12px; text-anchor: end;">1157</text></g></svg>